<svg width="36" height="37" viewBox="0 0 36 37" fill="none" xmlns="http://www.w3.org/2000/svg">
<path d="M5.68677 23.4081C5.68677 23.6435 5.49591 23.8342 5.26038 23.8342C5.02485 23.8342 4.83398 23.6435 4.83398 23.4081C4.83398 23.1727 5.02485 22.9819 5.26038 22.9819C5.49591 22.9819 5.68677 23.1727 5.68677 23.4081Z" fill="black"/>
<path d="M8.24487 23.4081C8.24487 23.6435 8.05401 23.8342 7.81848 23.8342C7.58295 23.8342 7.39209 23.6435 7.39209 23.4081C7.39209 23.1727 7.58295 22.9819 7.81848 22.9819C8.05401 22.9819 8.24487 23.1727 8.24487 23.4081Z" fill="black"/>
<path d="M9.45982 27.5794H9.09767C9.64484 27.0271 10.0387 26.3418 10.241 25.5911C10.6963 25.4922 11.0973 25.2246 11.3635 24.8422C11.6295 24.4597 11.7406 23.9911 11.6749 23.53C11.6089 23.0689 11.3709 22.6496 11.0084 22.357C11.2927 20.7243 11.0858 19.483 10.3831 18.6689C9.86841 18.0975 9.14334 17.7602 8.37461 17.7349C7.77846 17.2946 7.07216 17.0275 6.33364 16.9631C5.59539 16.8984 4.8533 17.0392 4.18989 17.3696C2.28367 18.3234 1.55607 20.0062 1.99156 22.3569C1.62915 22.6499 1.39135 23.0688 1.32562 23.5296C1.25989 23.9907 1.3713 24.4594 1.63753 24.8418C1.90375 25.224 2.30477 25.4913 2.76001 25.59C2.9633 26.3439 3.35997 27.0318 3.9107 27.5856C3.16712 27.6189 2.47551 27.9772 2.01994 28.5656H1.89152C1.40018 28.5639 0.927624 28.7538 0.574382 29.0952C0.221107 29.4365 0.0155347 29.9022 0.000818968 30.3929C-0.0136473 30.8839 0.164005 31.3609 0.49647 31.7226L0.501038 33.5791C0.501292 33.8913 0.595699 34.1964 0.772087 34.4543C0.948214 34.7122 1.1982 34.9113 1.48903 35.0254V36.048H2.62601V35.0254C2.91685 34.9113 3.16658 34.7124 3.34295 34.4545C3.51908 34.1968 3.61349 33.8917 3.614 33.5795L3.60943 31.7235C3.97464 31.3261 4.15076 30.7905 4.09265 30.2538C4.03453 29.7174 3.74775 29.232 3.30593 28.9216C3.52368 28.7887 3.77391 28.7179 4.02898 28.7171H4.19318L4.7203 29.6347C4.96038 30.0547 5.34183 30.3766 5.79659 30.5427C6.25138 30.7088 6.75035 30.7088 7.20514 30.5427C7.65993 30.3765 8.04111 30.0547 8.28118 29.6347L8.80704 28.7157H9.46076V28.7154C9.96504 28.7162 10.4485 28.9168 10.8051 29.2734C11.1616 29.6297 11.3619 30.1131 11.3624 30.617L11.3664 36.0479H12.5034L12.4983 30.617C12.4976 29.8118 12.177 29.0398 11.6075 28.4702C11.0378 27.9008 10.2655 27.5802 9.45969 27.5792L9.45982 27.5794ZM2.05778 33.9989C1.94611 33.9989 1.83927 33.9543 1.76059 33.8754C1.68192 33.7966 1.63801 33.6895 1.63827 33.5779L1.63497 32.1719H2.47451V33.5792C2.47451 33.8098 2.28848 33.9972 2.05779 33.999L2.05778 33.9989ZM2.75751 30.9766L2.70066 31.0334L1.4058 31.0337L1.34896 30.9768C1.14009 30.7592 1.08146 30.4382 1.19947 30.1607C1.31774 29.8835 1.59005 29.7035 1.89179 29.703H2.2141C2.5156 29.7035 2.78792 29.8833 2.90616 30.1605C3.02443 30.4377 2.96606 30.7585 2.75744 30.9761L2.75751 30.9766ZM4.69953 18.3882C5.19772 18.146 5.75425 18.0499 6.30474 18.111C6.85522 18.1721 7.37701 18.3879 7.80971 18.7336C7.92341 18.831 8.07035 18.8802 8.21958 18.8706C8.71625 18.8551 9.19491 19.0567 9.53068 19.4227C9.9611 19.9294 10.0918 20.7953 9.92456 21.9406C9.89715 21.9406 9.87101 21.9319 9.84335 21.9319V21.448C9.84335 21.2 9.68219 20.9806 9.44541 20.9061C8.88428 20.7412 8.39549 20.3917 8.05816 19.9142C7.9569 19.7415 7.77189 19.635 7.57165 19.6335H7.56759C7.36912 19.6335 7.18487 19.7367 7.08158 19.9063C6.7882 20.3897 5.09187 20.7892 3.68819 20.8817C3.38897 20.9015 3.1565 21.15 3.15726 21.4498V21.9345C3.12478 21.9345 3.09407 21.9431 3.06235 21.9446C2.78368 20.1983 3.29938 19.0871 4.69953 18.3882V18.3882ZM7.29352 29.071V29.0713C7.13085 29.3558 6.82807 29.5313 6.49991 29.5313C6.17202 29.5313 5.86925 29.3558 5.7063 29.0713L5.50277 28.7157H7.49702L7.29352 29.071ZM6.49764 27.5792C5.19012 27.5792 4.04983 26.4801 3.78131 24.966H3.78156C3.73182 24.668 3.4562 24.4621 3.15622 24.4991C2.96258 24.5047 2.77528 24.4316 2.63671 24.2967C2.49789 24.162 2.41973 23.9769 2.41973 23.7836C2.41973 23.5901 2.49789 23.4052 2.63671 23.2703C2.77528 23.1357 2.96258 23.0626 3.15622 23.0679L3.29149 23.0651C3.40519 23.0651 3.56609 23.0555 3.60086 23.055H3.6006C3.76861 23.0913 3.94398 23.0497 4.07773 22.9416C4.21148 22.8339 4.28914 22.671 4.28914 22.4993V21.967C5.41851 21.8889 6.51768 21.5693 7.51302 21.0304C7.85487 21.372 8.2579 21.6467 8.701 21.8399V22.4996V22.4993C8.69313 22.6693 8.76343 22.8336 8.89159 22.9454C9.01697 23.0525 9.18523 23.0946 9.34638 23.0591C9.42252 23.054 9.5852 23.0591 9.69611 23.0624L9.83315 23.0651H9.8329C10.2288 23.0641 10.5506 23.3839 10.5519 23.7796C10.5529 24.1752 10.2328 24.4968 9.83693 24.498C9.5372 24.4618 9.26133 24.6659 9.2088 24.9632C8.94714 26.48 7.80557 27.5792 6.50032 27.5792L6.49764 27.5792Z" fill="black"/>
<path d="M9.39551 31.6023L10.5324 31.599L10.5459 36.0433L9.40896 36.0466L9.39551 31.6023Z" fill="black"/>
<path d="M6.50057 26.1356C6.11202 26.1351 5.79708 25.8203 5.7963 25.4318H5.22781C5.22071 25.7737 5.35141 26.1041 5.59098 26.3486C5.8303 26.5929 6.1582 26.7306 6.5003 26.7306C6.84265 26.7306 7.17052 26.5929 7.40987 26.3486C7.64919 26.1041 7.78015 25.7736 7.77304 25.4318H7.20456C7.20405 25.8201 6.88935 26.1351 6.50055 26.1356H6.50057Z" fill="black"/>
<path d="M24.447 0.826294C21.5833 0.829337 18.8378 1.96755 16.8131 3.99114C14.7881 6.01473 13.6491 8.75834 13.6461 11.6199C13.6367 14.4368 14.7422 17.143 16.7215 19.1486C16.5677 19.4567 16.488 19.7966 16.4885 20.141C16.4864 20.7595 16.7377 21.3519 17.1836 21.7808C17.6297 22.2097 18.2317 22.4377 18.8502 22.4118C19.4684 22.386 20.0496 22.1088 20.4582 21.6442C21.7264 22.1532 23.0806 22.4144 24.4472 22.4134C27.312 22.4134 30.0592 21.2762 32.0844 19.2519C34.1101 17.2278 35.248 14.4824 35.248 11.6199C35.248 8.75742 34.11 6.01173 32.0844 3.98794C30.0589 1.96358 27.3116 0.826411 24.4472 0.826411L24.447 0.826294ZM24.447 21.2777C23.0829 21.2782 21.7342 20.9879 20.4914 20.4256C20.2191 20.3034 19.8988 20.4122 19.7575 20.6749C19.6083 20.9584 19.3456 21.1651 19.035 21.2437C18.7241 21.3224 18.3946 21.2656 18.1284 21.0875C17.862 20.9095 17.6838 20.6267 17.6379 20.3097C17.5922 19.9927 17.6833 19.6714 17.8884 19.4251C18.0779 19.1941 18.0559 18.8555 17.8378 18.6508C15.8827 16.8357 14.7754 14.2869 14.7828 11.6201C14.7828 9.05883 15.801 6.60232 17.6132 4.79123C19.4258 2.98014 21.884 1.9627 24.4467 1.9627C27.0095 1.9627 29.4679 2.98021 31.2802 4.79123C33.0926 6.60252 34.1107 9.05903 34.1107 11.6201C34.1107 14.1811 33.0925 16.6378 31.2802 18.4489C29.4677 20.26 27.0095 21.2774 24.4467 21.2774L24.447 21.2777Z" fill="black"/>
<path d="M16.4882 23.8339C16.4882 24.3046 16.1065 24.686 15.6354 24.686C15.1644 24.686 14.7827 24.3046 14.7827 23.8339C14.7827 23.3632 15.1644 22.9818 15.6354 22.9818C16.1065 22.9818 16.4882 23.3632 16.4882 23.8339Z" fill="black"/>
<path d="M27.375 7.30257C26.5847 6.5952 25.5648 6.19753 24.504 6.18337C23.4432 6.16922 22.4128 6.53945 21.604 7.22576C20.7952 7.91176 20.2622 8.86741 20.1036 9.91589C19.9137 11.1531 20.266 12.412 21.07 13.3717C21.6052 14.0144 21.9471 14.7958 22.056 15.6248C21.7867 15.6689 21.5885 15.9005 21.5862 16.1729V17.7012C21.5862 17.9875 21.7001 18.2619 21.9027 18.4643C22.1052 18.667 22.38 18.7806 22.6663 18.7806H23.1211C23.1505 19.072 23.3967 19.2934 23.6896 19.2919H25.2189C25.512 19.2934 25.7579 19.072 25.7874 18.7806H26.2421C26.5287 18.7806 26.8033 18.667 27.0058 18.4643C27.2086 18.2619 27.3223 17.9875 27.3223 17.7012V16.1729C27.32 15.899 27.12 15.6669 26.8492 15.6243C26.938 14.8161 27.2652 14.0527 27.789 13.4308C28.5394 12.5607 28.9183 11.431 28.8439 10.2847C28.7693 9.13836 28.2478 8.06682 27.391 7.30089L27.375 7.30257ZM26.1716 17.642H25.2116C24.9195 17.642 24.6751 17.8629 24.6459 18.1533H24.2479C24.2188 17.8629 23.9744 17.642 23.6823 17.642H22.7222V16.7426H26.1717L26.1716 17.642ZM26.9139 12.6881H26.9142C26.216 13.5114 25.7889 14.5296 25.6907 15.6042H23.2018C23.083 14.5167 22.646 13.488 21.9456 12.6473C21.3502 11.9339 21.0903 10.9992 21.2317 10.0812C21.3421 9.37688 21.6801 8.72814 22.1936 8.2336C22.7072 7.73905 23.3686 7.4256 24.0769 7.34113C24.9491 7.23943 25.8257 7.49457 26.5068 8.04869C27.188 8.60259 27.6161 9.4083 27.6938 10.2825C27.7715 11.1568 27.4921 12.0251 26.9193 12.6904L26.9139 12.6881Z" fill="black"/>
<path d="M23.8784 3.95081H25.0154V5.47839H23.8784V3.95081Z" fill="black"/>
<path d="M27.6494 6.56889L28.7303 5.48877L29.5343 6.29219L28.4534 7.37231L27.6494 6.56889Z" fill="black"/>
<path d="M19.3599 6.29125L20.1639 5.48804L21.2448 6.56849L20.4408 7.3717L19.3599 6.29125Z" fill="black"/>
<path d="M24.4473 7.96681V9.10304C24.8371 9.1033 25.2107 9.25826 25.4863 9.5337C25.7619 9.80913 25.917 10.1825 25.9175 10.572H27.0544C27.0537 9.88139 26.7786 9.21893 26.29 8.73074C25.8012 8.24226 25.1385 7.96758 24.4473 7.9668L24.4473 7.96681Z" fill="black"/>
</svg>
