<svg width="31" height="32" viewBox="0 0 31 32" fill="none" xmlns="http://www.w3.org/2000/svg">
<path d="M11.3669 17.4623C11.3669 17.7474 11.1355 17.9785 10.8502 17.9785C10.5649 17.9785 10.3335 17.7474 10.3335 17.4623C10.3335 17.1772 10.5649 16.946 10.8502 16.946C11.1355 16.946 11.3669 17.1772 11.3669 17.4623Z" fill="black"/>
<path d="M8.78333 15.3971C8.78333 15.6822 8.55198 15.9133 8.26666 15.9133C7.98135 15.9133 7.75 15.6822 7.75 15.3971C7.75 15.112 7.98135 14.8809 8.26666 14.8809C8.55198 14.8809 8.78333 15.112 8.78333 15.3971Z" fill="black"/>
<path d="M9.92017 15.0872L8.37016 17.1524C8.19855 17.3806 8.24514 17.7045 8.47349 17.8753C8.56644 17.9449 8.67555 17.9785 8.78303 17.9785C8.94011 17.9785 9.09511 17.9073 9.19683 17.772L10.7468 15.7068C10.9178 15.4786 10.8719 15.1548 10.6435 14.984C10.4147 14.8125 10.0911 14.8595 9.92017 15.0872Z" fill="black"/>
<path d="M6.71701 10.2339C5.8624 10.2339 5.16699 10.9288 5.16699 11.7827C5.16699 12.6367 5.8624 13.3315 6.71701 13.3315C7.57162 13.3315 8.26703 12.6367 8.26703 11.7827C8.26703 10.9288 7.57162 10.2339 6.71701 10.2339ZM6.71701 12.299C6.43238 12.299 6.20034 12.0671 6.20034 11.7827C6.20034 11.4983 6.43238 11.2664 6.71701 11.2664C7.00164 11.2664 7.23368 11.4983 7.23368 11.7827C7.23368 12.0671 7.00164 12.299 6.71701 12.299Z" fill="black"/>
<path d="M21.7001 5.07076C21.7001 4.78587 21.4692 4.55444 21.1835 4.55444H19.1168C18.831 4.55444 18.6001 4.78587 18.6001 5.07076V5.58708H17.0501C16.893 5.58708 16.7447 5.6583 16.6467 5.7807L16.2963 6.21865C15.1146 5.18601 13.5729 4.55445 11.8834 4.55445C11.5983 4.55445 11.3667 4.78587 11.3667 5.07077V11.2666C11.3667 11.5515 11.5983 11.7829 11.8834 11.7829C12.1685 11.7829 12.4 11.5515 12.4 11.2666V5.6104C13.6426 5.72288 14.7684 6.23989 15.6514 7.02405L14.5798 8.36282C14.4015 8.58525 14.4377 8.91072 14.6603 9.0882C14.756 9.16427 14.8697 9.20138 14.9829 9.20138C15.1343 9.20138 15.2846 9.13522 15.3864 9.00776L16.3643 7.78565C17.0152 8.62049 17.4422 9.6382 17.5427 10.7503H13.95C13.6649 10.7503 13.4333 10.9817 13.4333 11.2666C13.4333 11.5515 13.6649 11.783 13.95 11.783H18.0834C18.3692 11.783 18.6001 11.5515 18.6001 11.2666C18.6001 9.62734 18.0075 8.12542 17.0272 6.95836L17.298 6.61975H18.6001V7.13607C18.6001 7.42097 18.831 7.65239 19.1167 7.65239H21.1834C21.4692 7.65239 21.7001 7.42097 21.7001 7.13607L21.7001 5.07076ZM20.6668 6.61972H19.6334V5.58708H20.6668V6.61972Z" fill="black"/>
<path d="M21.1834 8.68481H19.6334C19.3476 8.68481 19.1167 8.9162 19.1167 9.20105C19.1167 9.4859 19.3476 9.71729 19.6334 9.71729H21.1834C21.4692 9.71729 21.7001 9.4859 21.7001 9.20105C21.7001 8.9162 21.4692 8.68481 21.1834 8.68481Z" fill="black"/>
<path d="M21.1837 10.7505H20.6671C20.3813 10.7505 20.1504 10.9819 20.1504 11.2667C20.1504 11.5516 20.3813 11.783 20.6671 11.783H21.1837C21.4695 11.783 21.7004 11.5516 21.7004 11.2667C21.7004 10.9819 21.4695 10.7505 21.1837 10.7505Z" fill="black"/>
<path d="M19.6336 13.3315H18.0836C17.7978 13.3315 17.5669 13.563 17.5669 13.8479C17.5669 14.1328 17.7978 14.3643 18.0836 14.3643H19.6336C19.9194 14.3643 20.1503 14.1328 20.1503 13.8479C20.1503 13.563 19.9194 13.3315 19.6336 13.3315Z" fill="black"/>
<path d="M19.6335 15.3972H18.6002C18.3144 15.3972 18.0835 15.6286 18.0835 15.9135C18.0835 16.1983 18.3144 16.4297 18.6002 16.4297H19.6335C19.9193 16.4297 20.1502 16.1983 20.1502 15.9135C20.1502 15.6286 19.9193 15.3972 19.6335 15.3972Z" fill="black"/>
<path d="M4.13293 5.07068C4.13293 5.35576 3.90159 5.58691 3.61627 5.58691C3.33096 5.58691 3.09961 5.35576 3.09961 5.07068C3.09961 4.7856 3.33096 4.55444 3.61627 4.55444C3.90159 4.55444 4.13293 4.7856 4.13293 5.07068Z" fill="black"/>
<path d="M6.20032 5.07068C6.20032 5.35576 5.96897 5.58691 5.68365 5.58691C5.39834 5.58691 5.16699 5.35576 5.16699 5.07068C5.16699 4.7856 5.39834 4.55444 5.68365 4.55444C5.96897 4.55444 6.20032 4.7856 6.20032 5.07068Z" fill="black"/>
<path d="M8.26678 5.07068C8.26678 5.35576 8.03542 5.58691 7.75009 5.58691C7.46476 5.58691 7.2334 5.35576 7.2334 5.07068C7.2334 4.7856 7.46476 4.55444 7.75009 4.55444C8.03542 4.55444 8.26678 4.7856 8.26678 5.07068Z" fill="black"/>
<path d="M4.13293 19.5277C4.13293 19.8129 3.90159 20.0442 3.61627 20.0442C3.33096 20.0442 3.09961 19.8129 3.09961 19.5277C3.09961 19.2425 3.33096 19.0112 3.61627 19.0112C3.90159 19.0112 4.13293 19.2425 4.13293 19.5277Z" fill="black"/>
<path d="M18.0836 20.6395V17.9788C18.0836 17.1248 17.3881 16.4298 16.5335 16.4298C16.1693 16.4298 15.8385 16.5615 15.5735 16.7721C16.1785 15.7649 16.5335 14.5902 16.5335 13.3319C16.5335 13.047 16.3026 12.8156 16.0169 12.8156H10.3335V7.13606C10.3335 6.85116 10.1019 6.61974 9.81678 6.61974C6.11267 6.61974 3.10002 9.63033 3.10002 13.3319C3.10002 14.4212 3.36966 15.5066 3.88082 16.4702C4.01414 16.7221 4.32622 16.8178 4.57924 16.685C4.83135 16.5513 4.92753 16.239 4.79421 15.9871C4.3555 15.1602 4.1334 14.2664 4.1334 13.3319C4.1334 10.3739 6.40724 7.9373 9.30014 7.67572V13.3319C9.30014 13.6168 9.53172 13.8483 9.81681 13.8483H15.4769C15.2151 16.7392 12.7764 19.0115 9.81681 19.0115C8.38211 19.0115 7.00876 18.4698 5.95097 17.4862C5.74269 17.2926 5.41561 17.3034 5.22095 17.5125C5.02674 17.7211 5.03851 18.0479 5.24725 18.2425C6.49719 19.4044 8.12007 20.0441 9.81683 20.0441C11.9393 20.0441 13.8319 19.0522 15.0636 17.5116C15.0161 17.6598 14.9835 17.8147 14.9835 17.9788V21.0767H2.06669V3.52181H22.7336V10.7503C22.7336 11.0352 22.9645 11.2666 23.2503 11.2666C23.5361 11.2666 23.767 11.0352 23.767 10.7503V3.42681C24.3669 3.2129 24.8003 2.64495 24.8003 1.97279C24.8003 1.11877 24.1049 0.423828 23.2503 0.423828H19.1169C18.8311 0.423828 18.6003 0.655252 18.6003 0.940148C18.6003 1.22505 18.8311 1.45647 19.1169 1.45647H23.2503C23.5354 1.45647 23.767 1.68835 23.767 1.97279C23.767 2.25723 23.5354 2.48911 23.2503 2.48911H1.55002C1.26539 2.48911 1.03335 2.25723 1.03335 1.97279C1.03335 1.68835 1.26539 1.45647 1.55002 1.45647H17.0502C17.336 1.45647 17.5669 1.22505 17.5669 0.940148C17.5669 0.655252 17.336 0.423828 17.0502 0.423828H1.55002C0.695413 0.423828 0 1.11877 0 1.97279C0 2.64495 0.432943 3.2129 1.03335 3.42681V21.1723C0.432943 21.3855 0 21.9534 0 22.6256C0 23.4796 0.695413 24.1746 1.55002 24.1746H6.20009C6.48518 24.1746 6.71676 23.9431 6.71676 23.6582C6.71676 23.3733 6.48518 23.1419 6.20009 23.1419H1.55002C1.26539 23.1419 1.03335 22.91 1.03335 22.6256C1.03335 22.3412 1.26539 22.1093 1.55002 22.1093H15.0266C15.0938 22.4857 15.2416 22.8372 15.4566 23.1419H8.26626C7.98117 23.1419 7.74959 23.3733 7.74959 23.6582C7.74959 23.9431 7.98117 24.1746 8.26626 24.1746H11.883V26.8511C11.2826 27.0648 10.8496 27.6327 10.8496 28.3051C10.8496 29.1591 11.545 29.8541 12.3997 29.8541C13.2543 29.8541 13.9497 29.1591 13.9497 28.3051C13.9497 27.633 13.5163 27.065 12.9163 26.8511V24.1746H16.9614L19.381 24.9832L20.1498 25.4866V30.8867C20.1498 31.1716 20.3807 31.4031 20.6665 31.4031C20.9523 31.4031 21.1832 31.1716 21.1832 30.8867V25.2072C21.1832 25.0332 21.0953 24.8707 20.9497 24.7755L20.0869 24.2112L19.8398 22.4836L19.766 21.9664L20.5818 22.1022C20.6097 22.1072 20.6381 22.1093 20.6665 22.1093H21.779L22.2239 24.7762C22.2507 24.9378 22.3531 25.0772 22.4988 25.1514C22.572 25.1886 22.6532 25.2072 22.7332 25.2072C22.8123 25.2072 22.8919 25.1892 22.9641 25.1531L24.2832 24.4936V30.8865C24.2832 31.1714 24.5141 31.4028 24.7999 31.4028C25.0857 31.4028 25.3166 31.1714 25.3166 30.8865V24.4936L26.6357 25.1523C26.7079 25.1892 26.7875 25.2072 26.8666 25.2072C26.9466 25.2072 27.0274 25.1885 27.1012 25.151C27.247 25.0765 27.3491 24.9373 27.3761 24.7757L27.8137 22.1529C29.0329 22.3592 29.9667 23.4146 29.9667 24.6909V26.2399H28.4166V25.7236C28.4166 25.4387 28.1857 25.2072 27.9 25.2072C27.6142 25.2072 27.3833 25.4387 27.3833 25.7236V30.8868C27.3833 31.1717 27.6142 31.4031 27.9 31.4031C28.1857 31.4031 28.4166 31.1717 28.4166 30.8868V27.2725H29.9667V30.8868C29.9667 31.1717 30.1975 31.4031 30.4833 31.4031C30.7691 31.4031 31 31.1717 31 30.8868V24.6909C31 22.698 29.3771 21.0767 27.3833 21.0767H27.3258C27.9982 20.42 28.4166 19.5061 28.4166 18.4951V17.9787C28.4166 17.6939 28.1858 17.4624 27.9 17.4624C27.6142 17.4624 27.3833 17.6939 27.3833 17.9787V18.4951C27.3833 19.9186 26.2245 21.0767 24.7999 21.0767C23.3754 21.0767 22.2166 19.9186 22.2166 18.4951V16.3844C22.8041 16.2806 23.3569 16.0033 23.7894 15.5877C24.4937 16.1338 25.3545 16.4298 26.2611 16.4298H27.9C28.1858 16.4298 28.4166 16.1984 28.4166 15.9135C28.4166 13.9206 26.7938 12.2992 24.7999 12.2992H21.6999C21.4141 12.2992 21.1832 12.5306 21.1832 12.8155V18.4951C21.1832 19.5061 21.6016 20.42 22.2733 21.0767H20.7095L18.0836 20.6395ZM22.2169 13.3319H24.8003C26.0482 13.3319 27.0917 14.2205 27.3315 15.3972H26.2615C25.457 15.3972 24.7006 15.0844 24.1323 14.5157C24.0352 14.4187 23.9044 14.3645 23.7669 14.3645C23.6295 14.3645 23.4982 14.4187 23.4016 14.5157L23.0987 14.8184C22.8542 15.0627 22.5479 15.2377 22.2167 15.3276L22.2169 13.3319ZM12.4001 28.8215C12.1155 28.8215 11.8835 28.5896 11.8835 28.3052C11.8835 28.0208 12.1155 27.7889 12.4001 27.7889C12.6848 27.7889 12.9168 28.0208 12.9168 28.3052C12.9168 28.5896 12.6848 28.8215 12.4001 28.8215ZM16.0169 17.9788C16.0169 17.6944 16.2484 17.4625 16.5335 17.4625C16.8186 17.4625 17.0502 17.6944 17.0502 17.9788V21.0767C17.0502 21.3291 17.2327 21.5444 17.4822 21.5859L18.6969 21.7883L18.9785 23.7595L17.0755 23.1233C16.4421 22.9122 16.0168 22.3221 16.0168 21.655L16.0169 17.9788ZM25.7504 21.9787L24.8003 22.9283L23.8502 21.9789C24.1535 22.0614 24.4712 22.1094 24.8003 22.1094C25.1295 22.1094 25.4471 22.0614 25.7504 21.9787V21.9787ZM23.1283 23.9165L22.8886 22.4774L23.9282 23.5168L23.1283 23.9165ZM26.4724 23.9165L25.6725 23.5168L26.712 22.4775L26.4724 23.9165Z" fill="black"/>
<path d="M24.2838 17.9788C24.2838 18.2639 24.0525 18.4951 23.7672 18.4951C23.4818 18.4951 23.2505 18.2639 23.2505 17.9788C23.2505 17.6936 23.4818 17.4624 23.7672 17.4624C24.0525 17.4624 24.2838 17.6936 24.2838 17.9788Z" fill="black"/>
<path d="M26.3502 17.9788C26.3502 18.2639 26.1189 18.4951 25.8336 18.4951C25.5482 18.4951 25.3169 18.2639 25.3169 17.9788C25.3169 17.6936 25.5482 17.4624 25.8336 17.4624C26.1189 17.4624 26.3502 17.6936 26.3502 17.9788Z" fill="black"/>
</svg>
