<svg width="32" height="37" viewBox="0 0 32 37" fill="none" xmlns="http://www.w3.org/2000/svg">
<path d="M0 9.25V27.75L15.6 37L31.2 27.75V9.25L15.6 0L0 9.25Z" fill="#FBC5B4"/>
<path d="M15.1613 18.3369C17.571 18.3369 19.531 15.7796 19.531 13.3701C19.531 10.9607 17.571 9 15.1613 9C12.7516 9 10.7913 10.9607 10.7913 13.3701C10.7917 15.7793 12.7517 18.3369 15.1613 18.3369Z" fill="#090940"/>
<path d="M18.442 18.3818C17.5943 19.0276 16.537 19.4119 15.3916 19.4119H14.9315C13.7858 19.4119 12.7282 19.0275 11.8808 18.3818C9.11332 18.8292 7 21.2281 7 24.1216C7 25.7112 10.654 27.0003 15.1616 27.0003C19.6691 27.0003 23.3231 25.7112 23.3231 24.1216C23.3231 21.228 21.2095 18.829 18.442 18.3818H18.442Z" fill="#090940"/>
</svg>
