<svg width="27" height="34" viewBox="0 0 27 34" fill="none" xmlns="http://www.w3.org/2000/svg">
<path d="M18.0324 24.1111C17.624 24.1111 17.2926 24.4423 17.2926 24.8504C17.2926 25.7451 15.7141 26.7421 13.4493 26.7421C11.1846 26.7421 9.6061 25.7452 9.6061 24.8504C9.6061 24.4423 9.27468 24.1111 8.86628 24.1111C8.45786 24.1111 8.12646 24.4423 8.12646 24.8504C8.12646 26.7406 10.4644 28.2207 13.4494 28.2207C16.434 28.2207 18.7723 26.7402 18.7723 24.8504C18.7723 24.4423 18.4409 24.1111 18.0325 24.1111H18.0324Z" fill="black"/>
<path d="M13.4493 11.3462C10.5143 11.3462 8.12646 13.7324 8.12646 16.6655C8.12646 19.5987 10.5143 21.9849 13.4493 21.9849C16.3844 21.9849 18.7722 19.5987 18.7722 16.6655C18.7722 13.7324 16.3844 11.3462 13.4493 11.3462ZM13.4493 20.5062C11.3303 20.5062 9.60614 18.7831 9.60614 16.6655C9.60614 14.5479 11.3304 12.8249 13.4493 12.8249C15.5683 12.8249 17.2925 14.548 17.2925 16.6655C17.2925 18.7832 15.5683 20.5062 13.4493 20.5062Z" fill="black"/>
<path d="M15.7899 16.6661C15.7899 17.9576 14.7421 19.0046 13.4496 19.0046C12.1572 19.0046 11.1094 17.9576 11.1094 16.6661C11.1094 15.3747 12.1572 14.3276 13.4496 14.3276C14.7421 14.3276 15.7899 15.3747 15.7899 16.6661Z" fill="black"/>
<path d="M24.7316 0.425049C23.537 0.425049 22.565 1.39637 22.565 2.59018C22.565 2.62601 22.5688 2.66072 22.5703 2.69618C20.0813 3.92098 19.1419 6.22709 18.7992 7.53793C17.2282 6.61493 15.3998 6.08457 13.4491 6.08457C11.4988 6.08457 9.67006 6.61491 8.09907 7.53793C7.75634 6.22719 6.81681 3.92098 4.32794 2.69618C4.32945 2.66072 4.33323 2.62602 4.33323 2.59018C4.33323 1.39637 3.36123 0.425049 2.16661 0.425049C0.971989 0.425049 0 1.39637 0 2.59018C0 3.78399 0.971989 4.75531 2.16661 4.75531C2.79244 4.75531 3.35563 4.48713 3.75113 4.06164C6.09177 5.2653 6.6643 7.72311 6.78479 8.44927C4.39207 10.391 2.86041 13.3524 2.86041 16.6654L2.86116 32.7431C2.86116 33.1513 3.19257 33.4824 3.60097 33.4824C4.00937 33.4824 4.34078 33.1512 4.34078 32.7431V16.6654C4.34078 11.6464 8.42673 7.56282 13.4496 7.56282C18.4721 7.56282 22.5584 11.646 22.5584 16.6654V32.7431C22.5584 33.1513 22.8898 33.4824 23.2982 33.4824C23.7066 33.4824 24.038 33.1512 24.038 32.7431V16.6654C24.038 13.3524 22.5063 10.3908 20.1136 8.44927C20.2341 7.72354 20.8067 5.2653 23.1473 4.06164C23.5433 4.48712 24.106 4.75531 24.7318 4.75531C25.9264 4.75531 26.8984 3.78399 26.8984 2.59018C26.8984 1.39637 25.9264 0.425049 24.7318 0.425049H24.7316ZM2.84423 2.7048C2.81253 2.75157 2.78497 2.80212 2.76383 2.85719C2.7476 2.89943 2.73628 2.94243 2.72835 2.98543C2.60379 3.1612 2.39922 3.27663 2.16783 3.27663C1.78886 3.27663 1.48086 2.96883 1.48086 2.59012C1.48086 2.21141 1.78886 1.90362 2.16783 1.90362C2.5468 1.90362 2.8548 2.21141 2.8548 2.59012C2.85443 2.62935 2.85027 2.66745 2.84423 2.70479V2.7048ZM24.7316 3.27664C24.5003 3.27664 24.2953 3.16121 24.1711 2.98544C24.1632 2.94244 24.1515 2.89944 24.1356 2.8572C24.1145 2.80212 24.0869 2.75158 24.0552 2.70481C24.0488 2.66747 24.0447 2.62937 24.0447 2.59014C24.0447 2.21143 24.3527 1.90364 24.7316 1.90364C25.1106 1.90364 25.4186 2.21143 25.4186 2.59014C25.4186 2.96885 25.1106 3.27665 24.7316 3.27665V3.27664Z" fill="black"/>
</svg>
