<svg width="34" height="35" viewBox="0 0 34 35" fill="none" xmlns="http://www.w3.org/2000/svg">
<path d="M25.7807 30.6921H24.5743C24.2452 30.6921 24.0259 30.9113 24.0259 31.24C24.0259 31.5687 24.2452 31.7878 24.5743 31.7878H25.7807C26.1097 31.7878 26.329 31.5687 26.329 31.24C26.329 30.9113 26.1097 30.6921 25.7807 30.6921Z" fill="black"/>
<path d="M33.8964 30.9113L30.6062 26.2533C30.5514 26.1437 30.3869 26.0889 30.2772 26.0341L24.958 24.8285C22.1065 24.2257 19.1453 24.9929 17.0063 26.9109C16.4031 26.3629 15.7451 25.9245 15.087 25.5957C14.8128 25.4861 14.4838 25.5957 14.3742 25.8149C14.2645 26.0889 14.3193 26.4177 14.5935 26.5273C15.3064 26.8561 15.9096 27.3493 16.5128 27.8425V31.7333H14.8677C14.5387 31.7333 14.3193 31.5141 14.3193 31.1853C14.3193 30.8565 14.1 30.6373 13.7709 30.6373H12.1258V29.3221H14.8677C15.1967 29.3221 15.4161 29.1029 15.4161 28.7741C15.4161 28.4453 15.1967 28.2261 14.8677 28.2261H3.35191L4.17447 27.0753L9.27431 25.9245C10.3162 25.7053 11.3581 25.7053 12.4 25.8697C12.6742 25.9245 13.0032 25.7053 13.0581 25.4313C13.1129 25.1573 12.8936 24.8285 12.6194 24.7737C11.4678 24.5545 10.2614 24.6093 9.1098 24.8285L3.73577 26.0341C3.6261 26.0889 3.46159 26.1437 3.40675 26.2533L0.116529 30.9113C-0.212493 31.3497 0.226203 31.7881 0.555225 31.7333H6.5873V34.2541C6.64213 34.9665 7.30018 34.8021 7.35501 34.7473L8.17757 34.3637C8.45175 34.2541 8.56143 33.9253 8.39692 33.6513C8.28724 33.3773 7.95822 33.2677 7.68403 33.4321V29.3221H10.9743V33.3773L9.54849 32.6649C9.27431 32.5553 8.94529 32.6649 8.83561 32.8841C8.72594 33.1581 8.83561 33.4869 9.05496 33.5965L11.2484 34.6925C11.7968 34.9117 12.071 34.4733 12.071 34.2541V31.7881H13.2774C13.4968 32.4457 14.1 32.8841 14.8128 32.8841H19.1998C19.9127 32.8841 20.5159 32.4457 20.7352 31.7881H22.49C22.819 31.7881 23.0384 31.5689 23.0384 31.2401C23.0384 30.9113 22.819 30.6921 22.49 30.6921H20.2965C19.9675 30.6921 19.7482 30.9113 19.7482 31.2401C19.7482 31.5689 19.5288 31.7881 19.1998 31.7881H17.5547V27.8973C19.474 26.0889 22.1062 25.3217 24.738 25.8697L29.8379 27.0205L30.6604 28.1713H19.1992C18.8702 28.1713 18.6508 28.3905 18.6508 28.7193C18.6508 29.0481 18.8702 29.2673 19.1992 29.2673L31.4275 29.2125L32.4146 30.6373H27.9728C27.6438 30.6373 27.4244 30.8565 27.4244 31.1853C27.4244 31.5141 27.6438 31.7333 27.9728 31.7333H33.4565C34.1145 31.7333 34.0049 31.0757 33.8952 30.9113H33.8964ZM6.58761 30.6921H1.59744L2.58451 29.2673L6.58761 29.3221V30.6921Z" fill="black"/>
<path d="M6.03923 24.3352C6.36825 24.3352 6.5876 24.116 6.5876 23.7872V21.2664C6.5876 17.4305 9.43912 14.3617 13.168 14.088V14.636C13.168 16.7732 14.868 18.472 17.0066 18.472C17.3357 18.472 17.555 18.2528 17.555 17.924C17.555 17.5952 17.3357 17.376 17.0066 17.376C15.5809 17.376 14.3745 16.2252 14.2648 14.8004L14.7583 15.2936C15.3615 15.8416 16.1292 16.1704 17.0066 16.1704C17.884 16.1704 18.6517 15.8416 19.2549 15.2388L19.7485 14.7456C19.6936 15.458 19.3646 16.1156 18.8711 16.6088C18.6517 16.828 18.6517 17.1568 18.8162 17.376C18.9808 17.5952 19.3646 17.5952 19.584 17.4308C20.4065 16.7184 20.8452 15.6772 20.8452 14.5812V14.088C24.5193 14.4168 27.4257 17.5404 27.4257 21.2664V23.7872C27.4257 24.116 27.645 24.3352 27.974 24.3352C28.3031 24.3352 28.5224 24.116 28.5224 23.7872V21.2664C28.5224 17.1017 25.4515 13.6496 21.4481 13.0465C22.49 11.9506 23.0384 10.5258 23.0384 8.99139V6.85422C23.0384 5.53904 22.5997 4.27865 21.832 3.23746C21.6675 3.01827 21.2836 2.96347 21.0643 3.12787C20.8449 3.29226 20.7901 3.67586 20.9546 3.89506C21.2288 4.27865 21.4481 4.66225 21.6126 5.10064C21.0643 5.81303 19.9127 6.30623 18.6514 6.30623C17.3902 6.30623 16.2386 5.81303 15.6354 4.99104C15.4709 4.77185 15.1967 4.71705 14.9225 4.82664C14.1 5.37464 12.6194 5.21024 12.4 5.15544C13.0581 3.29226 14.8677 1.92228 17.0063 1.92228C17.7192 1.92228 18.3772 2.08668 19.0353 2.36068C19.3095 2.47027 19.6385 2.36068 19.7482 2.08668C19.8578 1.81268 19.7482 1.48389 19.474 1.37429C18.7063 1.04549 17.8289 0.826294 17.0063 0.826294C13.6613 0.826294 10.9742 3.51146 10.9742 6.85422V8.99139C10.9742 10.5258 11.5226 11.9506 12.5645 13.0465C8.50658 13.6493 5.49023 17.0469 5.49023 21.2664V23.7872C5.49023 24.0612 5.70958 24.3352 6.0386 24.3352H6.03923ZM12.0713 8.99139V6.85422C12.0713 6.63502 12.0713 6.41582 12.1261 6.19663C12.4552 6.25143 14.0454 6.41582 15.0325 5.97743C15.8551 6.85422 17.1711 7.40221 18.6517 7.40221C19.913 7.40221 21.1194 7.01862 21.8871 6.36103C21.8871 6.52542 21.942 6.68982 21.942 6.85422V8.99139C21.942 10.3066 21.4484 11.5122 20.5162 12.4438L18.4872 14.4713C17.7195 15.2385 16.2937 15.2385 15.526 14.4713L13.4971 12.4438C12.5648 11.5122 12.0713 10.3066 12.0713 8.99139Z" fill="black"/>
<path d="M21.3936 20.5544C21.0646 20.5544 20.8452 20.7736 20.8452 21.1024C20.8452 21.4312 21.0646 21.6504 21.3936 21.6504H25.7805C26.1096 21.6504 26.3289 21.4312 26.3289 21.1024C26.3289 20.7736 26.1096 20.5544 25.7805 20.5544H21.3936Z" fill="black"/>
<path d="M11.3031 15.5673C9.49354 16.3345 8.17747 17.9785 7.79362 19.8965C7.73878 20.1705 7.95812 20.4993 8.23231 20.5541C8.61616 20.5541 8.83551 20.3897 8.89034 20.1157C9.16453 18.5265 10.2613 17.2113 11.7418 16.5537C12.016 16.4441 12.1257 16.1153 12.016 15.8413C11.9063 15.5673 11.5773 15.4577 11.3031 15.5673Z" fill="black"/>
</svg>
