<svg width="32" height="33" viewBox="0 0 32 33" fill="none" xmlns="http://www.w3.org/2000/svg">
<path d="M30.9744 2.39887H29.3994V1.34959C29.3994 1.21047 29.3441 1.07696 29.2457 0.978595C29.1472 0.880227 29.0136 0.824951 28.8744 0.824951H19.4244C18.595 0.827293 17.8157 1.22265 17.3244 1.89042C16.8332 1.22266 16.0539 0.82735 15.2244 0.824951H5.77441C5.48449 0.824951 5.24941 1.05987 5.24941 1.34959V2.39887H3.67441C3.38449 2.39887 3.14941 2.63379 3.14941 2.92351V11.8424H4.19941V3.44815H5.24941V10.7931H6.29941V1.87423H15.2244C15.6421 1.87423 16.0429 2.04005 16.3381 2.33516C16.6334 2.63027 16.7994 3.0308 16.7994 3.44812V10.2684H17.8494V3.44812C17.8494 3.03075 18.0153 2.63022 18.3106 2.33516C18.606 2.0401 19.0068 1.87423 19.4244 1.87423H28.3494V17.6134H25.7244V18.6627H28.8744C29.0136 18.6627 29.1472 18.6074 29.2456 18.509C29.344 18.4107 29.3994 18.2772 29.3994 18.138V3.44815H30.4494V19.712H26.2494V20.7612H30.9744C31.1136 20.7612 31.2472 20.706 31.3456 20.6076C31.444 20.5092 31.4994 20.3757 31.4994 20.2366V2.92351C31.4994 2.78438 31.444 2.65088 31.3456 2.55251C31.2472 2.45414 31.1136 2.39887 30.9744 2.39887H30.9744Z" fill="black"/>
<path d="M4.72482 28.1062H12.862L15.8545 32.0935C15.9537 32.2256 16.1093 32.3033 16.2745 32.3033H20.4745C21.7273 32.3017 22.9282 31.8038 23.8139 30.9187C24.6995 30.0335 25.1978 28.8335 25.1995 27.5816V21.2859C25.1967 18.643 24.1448 16.1093 22.2748 14.2407C20.4047 12.3719 17.8692 11.3208 15.2248 11.318H9.97476C7.33008 11.3208 4.7946 12.3719 2.92476 14.2407C1.05468 16.1095 0.00282 18.6433 0 21.2859V23.3845C0.00164064 24.6363 0.49992 25.8365 1.38564 26.7215C2.27136 27.6066 3.47226 28.1045 4.725 28.1062H4.72482ZM16.5376 31.2541L14.1751 28.1062H16.5376L18.9001 31.2541H16.5376ZM23.7916 29.1555H18.6377L17.8502 28.1062H24.113C24.0596 28.4702 23.9511 28.8239 23.7917 29.1555H23.7916ZM20.2127 31.2541L19.4252 30.2048H23.0398C22.3559 30.8772 21.4348 31.2538 20.4752 31.2541H20.2127ZM1.04994 21.2859C1.05182 20.9351 1.07432 20.5847 1.11721 20.2366H2.62495V19.1873H1.31245C1.70104 17.5989 2.51857 16.1473 3.67567 14.991C4.83277 13.8346 6.28543 13.0177 7.87495 12.6294V14.9902H8.92495V12.4342C9.27323 12.3914 9.62383 12.3689 9.97495 12.367H12.0749V16.0395C12.0749 16.4569 11.909 16.8574 11.6137 17.1525C11.3184 17.4475 10.9176 17.6134 10.5 17.6134H7.34998C7.10857 17.6169 6.86904 17.6541 6.6382 17.7242C6.0825 17.1225 5.77432 16.3337 5.77498 15.5148H4.72498C4.72263 16.5023 5.06107 17.4602 5.68312 18.2272C5.0794 18.7203 4.7278 19.4574 4.72498 20.2366V22.9043C3.98812 23.0134 3.30586 23.3565 2.7787 23.8828L3.52096 24.6245H3.52119C3.97986 24.1671 4.60167 23.9102 5.24991 23.9102C5.89815 23.9102 6.51999 24.1671 6.97863 24.6245L7.72089 23.8828H7.72113C7.19401 23.3565 6.51177 23.0134 5.77485 22.9043V20.2366C5.77485 19.8192 5.94078 19.4187 6.2361 19.1236C6.53141 18.8286 6.93222 18.6627 7.34982 18.6627H7.90997C8.02364 19.6215 8.45771 20.5139 9.14207 21.1957L9.34105 21.3946L10.0833 20.6528L9.88433 20.454L9.88456 20.4537C9.398 19.9682 9.07787 19.3412 8.97005 18.6627H10.4998C11.1957 18.6618 11.8629 18.3851 12.3551 17.8935C12.8471 17.4017 13.1238 16.7349 13.1248 16.0395V12.367H15.2248C17.1525 12.3677 19.0278 12.9961 20.5662 14.1571L19.0538 15.6685L19.796 16.4102L21.371 14.8363V14.8365C22.2023 15.6268 22.8738 16.5695 23.3487 17.6133H18.8998C18.4822 17.6133 18.0813 17.4475 17.7861 17.1524C17.4908 16.8573 17.3248 16.4568 17.3248 16.0395V14.9902H16.2748V16.0395C16.2758 16.7349 16.5526 17.4017 17.0445 17.8935C17.5367 18.3851 18.204 18.6617 18.8998 18.6627H23.7544C24.0169 19.5124 24.1503 20.3965 24.1498 21.2859V27.0569H15.7498V24.9583H14.6998V27.0569H11.5498C11.1322 27.0569 10.7314 26.8911 10.4361 26.596C10.1408 26.3008 9.97485 25.9003 9.97485 25.483V24.4337C9.97485 24.0164 10.1408 23.6158 10.4361 23.3208C10.7314 23.0257 11.1322 22.8598 11.5498 22.8598H18.5998C18.7086 23.5962 19.0517 24.2782 19.5784 24.8048L20.3209 24.0628C19.8631 23.6042 19.6063 22.9828 19.6063 22.3353C19.6063 21.6877 19.8631 21.0663 20.3209 20.6077L19.5784 19.8657C19.0517 20.3922 18.7086 21.0743 18.5998 21.8107H15.2923C14.8946 21.3451 14.6869 20.7471 14.7101 20.1354C14.7333 19.5238 14.986 18.9432 15.4177 18.5092L14.6734 17.7672C14.154 18.2879 13.8118 18.9587 13.6958 19.6845C13.5795 20.4103 13.6953 21.1545 14.0265 21.8107H11.5496C10.8537 21.8117 10.1865 22.0883 9.6943 22.5799C9.20235 23.0717 8.92558 23.7385 8.92462 24.4339V25.4832C8.92649 26.0526 9.11587 26.6058 9.46321 27.0571H4.72459C3.75031 27.056 2.81605 26.6688 2.12725 25.9802C1.43821 25.2919 1.05079 24.3583 1.04959 23.3847L1.04994 21.2859Z" fill="black"/>
<path d="M19.4248 3.97278H26.7748V5.02209H19.4248V3.97278Z" fill="black"/>
<path d="M19.4248 6.59595H23.6248V7.64526H19.4248V6.59595Z" fill="black"/>
<path d="M24.6748 6.59595H26.7748V7.64526H24.6748V6.59595Z" fill="black"/>
<path d="M19.4248 9.21924H26.7748V10.2684H19.4248V9.21924Z" fill="black"/>
<path d="M22.0498 11.8424H26.7748V12.8917H22.0498V11.8424Z" fill="black"/>
<path d="M24.6748 14.4656H26.7748V15.5149H24.6748V14.4656Z" fill="black"/>
<path d="M7.875 3.97278H15.225V5.02209H7.875V3.97278Z" fill="black"/>
<path d="M7.875 6.59595H13.125V7.64526H7.875V6.59595Z" fill="black"/>
<path d="M14.1748 6.59595H15.2248V7.64526H14.1748V6.59595Z" fill="black"/>
<path d="M7.875 9.21924H9.97501V10.2684H7.875V9.21924Z" fill="black"/>
<path d="M11.0244 9.21924H15.2244V10.2684H11.0244V9.21924Z" fill="black"/>
</svg>
