<svg width="32" height="28" viewBox="0 0 32 28" fill="none" xmlns="http://www.w3.org/2000/svg">
<path d="M32 3.08226C32 1.61644 30.8065 0.423828 29.3398 0.423828H28.0739C27.4487 0.423828 26.94 0.932136 26.94 1.55693V2.9119L1.5118 2.91213C0.678266 2.91213 0 3.58993 0 4.42289V26.2297C0 27.0627 0.678266 27.7405 1.5118 27.7405H29.3393C30.7784 27.7405 31.9717 26.571 31.9991 25.1337C31.9994 25.1216 31.9989 25.1095 31.9989 25.0971C31.9989 25.0919 31.9996 25.087 31.9996 25.082L32 3.08226ZM27.9479 1.55687C27.9479 1.48741 28.0043 1.43098 28.0738 1.43098H29.3397C30.2508 1.43098 30.9921 2.17174 30.9921 3.08223V23.0192C30.5125 22.6376 29.9109 22.423 29.2972 22.423H28.0738C28.0043 22.423 27.9478 22.3665 27.9478 22.2971L27.9479 1.55687ZM29.3398 26.7334H1.51226C1.23442 26.7334 1.00833 26.5075 1.00833 26.2298V4.42301C1.00833 4.14536 1.23442 3.91942 1.51226 3.91942H26.9404V22.2978C26.9404 22.9226 27.4491 23.4309 28.0743 23.4309H29.2977C29.753 23.4309 30.1985 23.6186 30.52 23.9462C30.8329 24.265 31.0008 24.68 30.9924 25.1146C30.9753 26.0071 30.234 26.7335 29.3402 26.7335L29.3398 26.7334Z" fill="black"/>
<path d="M15.2822 13.1745H14.1899V9.9287C14.1899 9.65106 14.416 9.42512 14.6939 9.42512H20.7508C21.0287 9.42512 21.2548 9.65106 21.2548 9.9287V10.2C21.0582 10.1047 20.8145 10.1456 20.6609 10.3163C20.4746 10.5229 20.4915 10.8414 20.6985 11.0273L21.4218 11.6779C21.5176 11.764 21.6382 11.8072 21.7588 11.8072C21.8794 11.8072 22.0002 11.764 22.0958 11.6779L22.8191 11.0273C23.0261 10.8412 23.0427 10.5228 22.8566 10.3163C22.703 10.1456 22.4596 10.1047 22.2628 10.2V9.9287C22.2628 9.09575 21.5845 8.41797 20.751 8.41797H14.694C13.8604 8.41797 13.1822 9.09575 13.1822 9.9287V13.1745H12.0899C11.2564 13.1745 10.5781 13.8523 10.5781 14.6852V15.9671C10.5781 16.8 11.2564 17.4778 12.0899 17.4778H15.2823C16.1158 17.4778 16.7941 16.8 16.7941 15.9671V14.6852C16.7941 13.852 16.1158 13.1745 15.2823 13.1745H15.2822ZM15.7861 15.9671C15.7861 16.2447 15.56 16.4706 15.2822 16.4706H12.0898C11.812 16.4706 11.5859 16.2447 11.5859 15.9671V14.6852C11.5859 14.4076 11.812 14.1816 12.0898 14.1816H15.2822C15.56 14.1816 15.7861 14.4076 15.7861 14.6852V15.9671Z" fill="black"/>
<path d="M23.3545 13.1741H20.1622C19.3287 13.1741 18.6504 13.8519 18.6504 14.6849V15.9669C18.6504 16.7999 19.3287 17.4778 20.1622 17.4778H23.3545C24.1881 17.4778 24.8663 16.7999 24.8663 15.9669V14.6849C24.8663 13.8517 24.1881 13.1741 23.3545 13.1741ZM23.8585 15.9669C23.8585 16.2446 23.6324 16.4705 23.3545 16.4705H20.1622C19.8844 16.4705 19.6583 16.2446 19.6583 15.9669V14.6849C19.6583 14.4073 19.8844 14.1813 20.1622 14.1813H23.3545C23.6324 14.1813 23.8585 14.4073 23.8585 14.6849V15.9669Z" fill="black"/>
<path d="M14.7462 19.5622L14.0229 18.9115C13.8312 18.7391 13.5403 18.7391 13.3486 18.9115L12.6253 19.5622C12.4186 19.7483 12.4017 20.0667 12.588 20.2733C12.7416 20.4439 12.9853 20.4848 13.1819 20.3895V20.7238C13.1819 21.0015 12.9558 21.2274 12.6779 21.2274H6.62095C6.34312 21.2274 6.11702 21.0015 6.11702 20.7238V17.4778H7.20926C8.04279 17.4778 8.72106 16.8 8.72106 15.967V14.6851C8.72106 13.8521 8.04279 13.1743 7.20926 13.1743H4.01668C3.18315 13.1743 2.50488 13.8521 2.50488 14.6851V15.967C2.50488 16.8 3.18315 17.4778 4.01668 17.4778H5.10892V20.7238C5.10892 21.5568 5.78719 22.2346 6.62072 22.2346H12.6777C13.5113 22.2346 14.1895 21.5568 14.1895 20.7238V20.3899C14.2588 20.4234 14.3337 20.4401 14.4086 20.4401C14.5465 20.4401 14.6838 20.3839 14.7834 20.2733C14.9697 20.0667 14.9528 19.7481 14.7461 19.5622H14.7462ZM3.51277 15.967V14.6851C3.51277 14.4075 3.73887 14.1815 4.01671 14.1815H7.20906C7.48689 14.1815 7.71299 14.4075 7.71299 14.6851V15.967C7.71299 16.2447 7.48689 16.4706 7.20906 16.4706H4.01671C3.73887 16.4706 3.51277 16.2447 3.51277 15.967Z" fill="black"/>
<path d="M3.00882 9.4248H8.2169C8.49519 9.4248 8.72083 9.19928 8.72083 8.92114C8.72083 8.64301 8.49519 8.41748 8.2169 8.41748H3.00882C2.73053 8.41748 2.50488 8.64301 2.50488 8.92114C2.50488 9.19928 2.73053 9.4248 3.00882 9.4248Z" fill="black"/>
<path d="M3.00882 11.5969H6.19892C6.4772 11.5969 6.70285 11.3714 6.70285 11.0933C6.70285 10.8151 6.4772 10.5896 6.19892 10.5896H3.00882C2.73053 10.5896 2.50488 10.8151 2.50488 11.0933C2.50488 11.3714 2.73053 11.5969 3.00882 11.5969Z" fill="black"/>
</svg>
