<svg width="32" height="27" viewBox="0 0 32 27" fill="none" xmlns="http://www.w3.org/2000/svg">
<path d="M10.0669 27C22.1394 27 28.7444 16.6112 28.7444 7.60485C28.7444 7.31279 28.7381 7.01425 28.7256 6.72219C30.0105 5.75729 31.1193 4.56212 32 3.19285C30.8034 3.74571 29.5329 4.10678 28.2319 4.26372C29.6017 3.41107 30.6274 2.07159 31.1188 0.493596C29.8301 1.28666 28.4208 1.8461 26.9513 2.14793C25.9611 1.05544 24.652 0.332086 23.2262 0.0896968C21.8005 -0.152692 20.3376 0.099388 19.0637 0.806964C17.7897 1.51454 16.7757 2.6382 16.1785 4.00422C15.5812 5.37024 15.4339 6.90253 15.7594 8.3642C13.15 8.22822 10.5972 7.52433 8.26664 6.29815C5.93604 5.07197 3.87959 3.35088 2.23062 1.24645C1.39253 2.74694 1.13608 4.52251 1.51337 6.2123C1.89067 7.90208 2.87342 9.37929 4.26188 10.3437C3.2195 10.3093 2.19997 10.0179 1.2875 9.49348V9.57785C1.28657 11.1525 1.8108 12.6789 2.77108 13.8976C3.73136 15.1162 5.06843 15.952 6.555 16.2627C5.58941 16.537 4.57598 16.577 3.59313 16.3795C4.01261 17.7337 4.82876 18.9182 5.92769 19.7675C7.02662 20.6169 8.3535 21.0888 9.72313 21.1173C7.3979 23.014 4.52557 24.0428 1.56875 24.0379C1.04438 24.0371 0.520532 24.0037 0 23.9379C3.00381 25.9391 6.49804 27.0019 10.0669 27Z" fill="#090940"/>
</svg>
